<svg id="_1_5" data-name="1,5" xmlns="http://www.w3.org/2000/svg" viewBox="0 0 512 512"><defs><style>.cls-1{fill:#adad00;}.cls-2{fill:#bdbd68;}.cls-3{fill:#eddd00;}.cls-4{fill:#ffed00;}.cls-5{fill:#f36;}.cls-6{fill:#fffddd;}.cls-7{fill:#330;}.cls-8{fill:#663;}</style></defs><path class="cls-1" d="M18.75,395.27,58,296.56c14.5-36.46,49-60.24,88.92-61.34l65-1.8a25.78,25.78,0,0,1,23.29,14l5.24,10.13c8.1,15.62-1.87,33.47-19,33.94l-44.78,1.24c-40,1.1-74.41,24.87-88.91,61.34L63.43,415.37c-4.71,11.85-18.29,17.15-30.55,11.92h0C20.28,421.91,13.9,407.47,18.75,395.27Z"/><path class="cls-2" d="M359,260l83.9-57.82c31-21.37,45.46-58.73,37.33-96.41L467,44.5a25.33,25.33,0,0,0-18.52-18.83l-10.73-2.76c-16.57-4.26-31.07,8.9-27.6,25l9.11,42.22c8.12,37.68-6.35,75-37.34,96.41l-52.09,35.9c-10.08,7-11.95,20.8-4.21,31.17h0C333.6,264.29,348.66,267.18,359,260Z"/><path class="cls-3" d="M341.71,309C341.71,386.87,292.13,450,231,450S120.24,386.87,120.24,309,169.81,203,231,203,341.71,231.2,341.71,309Z"/><path class="cls-4" d="M357.13,309c0,77.83-49.58,140.93-110.74,140.93S135.66,386.87,135.66,309s49.58-106,110.73-106S357.13,231.2,357.13,309Z"/><path class="cls-5" d="M280.22,157.26c15.22,33.78-24,58.39-53.68,58.39S159,193.16,172.85,157.26c11.62-30.08,24-58.38,53.69-58.38S267,127.86,280.22,157.26Z"/><path class="cls-6" d="M280.22,160c15.22,25.11-24,43.41-53.68,43.41S159,186.73,172.85,160c11.62-22.36,24-43.4,53.69-43.4S267,138.19,280.22,160Z"/><ellipse class="cls-7" cx="207.95" cy="150.83" rx="10.39" ry="4.87"/><ellipse class="cls-7" cx="241.37" cy="150.83" rx="10.39" ry="4.87"/><path class="cls-8" d="M405.58,241.31c-19.81,15.22-20.43,11.76-68.87,27.05a25.14,25.14,0,0,1-27.1-5.77L298.29,251.1c-12.61-12.8-6.34-23.65,10.36-30.21C345.18,203.71,343.29,204.35,356,191,375.34,170.68,422.52,228.29,405.58,241.31Z"/></svg>