<svg xmlns="http://www.w3.org/2000/svg" width="280" height="239" viewBox="0 0 280 239">
  <g id="Grupo_1" data-name="Grupo 1" transform="translate(-169.387 -301.704)">
    <g id="Unión_1" data-name="Unión 1" transform="translate(1079.198 367)" fill="none">
      <path d="M-893.811,173.7a16,16,0,0,1-16-16V-9.3a16,16,0,0,1,16-16h70.589a47.513,47.513,0,0,1,46.911-40h14a47.514,47.514,0,0,1,46.911,40h69.588a16,16,0,0,1,16,16v167a16,16,0,0,1-16,16Z" stroke="none"/>
      <path d="M -645.8112182617188 163.7044830322266 C -642.502685546875 163.7044830322266 -639.81103515625 161.0128021240234 -639.81103515625 157.7042999267578 L -639.81103515625 -9.295200347900391 C -639.81103515625 -12.60369968414307 -642.502685546875 -15.29538154602051 -645.8112182617188 -15.29538154602051 L -715.3994140625 -15.29538154602051 L -723.9381103515625 -15.29538154602051 L -725.2759399414063 -23.72860908508301 C -728.1776123046875 -42.01992797851563 -743.7529907226563 -55.29588317871094 -762.310791015625 -55.29588317871094 L -776.3112182617188 -55.29588317871094 C -794.8685913085938 -55.29588317871094 -810.4436645507813 -42.01992797851563 -813.3452758789063 -23.7286548614502 L -814.6830444335938 -15.29538154602051 L -823.2217407226563 -15.29538154602051 L -893.8107299804688 -15.29538154602051 C -897.1192626953125 -15.29538154602051 -899.8109130859375 -12.60369968414307 -899.8109130859375 -9.295200347900391 L -899.8109130859375 157.7042999267578 C -899.8109130859375 161.0128021240234 -897.1192626953125 163.7044830322266 -893.8107299804688 163.7044830322266 L -645.8112182617188 163.7044830322266 M -645.8112182617188 173.7044830322266 L -893.8107299804688 173.7044830322266 C -902.6478271484375 173.7044830322266 -909.8109130859375 166.5413970947266 -909.8109130859375 157.7042999267578 L -909.8109130859375 -9.295200347900391 C -909.8109130859375 -18.13229179382324 -902.6478271484375 -25.29538154602051 -893.8107299804688 -25.29538154602051 L -823.2217407226563 -25.29538154602051 C -819.6256713867188 -47.96479034423828 -799.9921875 -65.29588317871094 -776.3112182617188 -65.29588317871094 L -762.310791015625 -65.29588317871094 C -738.6298217773438 -65.29588317871094 -718.9956665039063 -47.96479034423828 -715.3994140625 -25.29538154602051 L -645.8112182617188 -25.29538154602051 C -636.97412109375 -25.29538154602051 -629.81103515625 -18.13229179382324 -629.81103515625 -9.295200347900391 L -629.81103515625 157.7042999267578 C -629.81103515625 166.5413970947266 -636.97412109375 173.7044830322266 -645.8112182617188 173.7044830322266 Z" stroke="none" fill="#ececec"/>
    </g>
  </g>
</svg>
