<svg xmlns="http://www.w3.org/2000/svg" width="264.478" height="264.5" viewBox="0 0 264.478 264.5">
  <g id="Sustracción_1" data-name="Sustracción 1" transform="translate(186 -77)" fill="#ececec">
    <path d="M -53.74890518188477 336.5007019042969 C -70.93021392822266 336.5007019042969 -87.59471130371094 333.1369323730469 -103.2794799804688 326.5028076171875 C -110.8186721801758 323.3140869140625 -118.0905227661133 319.3670654296875 -124.8930587768555 314.7713928222656 C -131.6324005126953 310.2183837890625 -137.9698638916016 304.9895324707031 -143.7294006347656 299.2300109863281 C -149.4890594482422 293.4703979492188 -154.7179412841797 287.1329650878906 -159.2708282470703 280.3938598632813 C -163.8665618896484 273.59130859375 -167.8135986328125 266.3195495605469 -171.0023345947266 258.780517578125 C -177.6364898681641 243.0957336425781 -181.0002899169922 226.4314270019531 -181.0002899169922 209.2505340576172 C -181.0002899169922 192.0697021484375 -177.6364898681641 175.4054260253906 -171.0023651123047 159.7206573486328 C -167.8135223388672 152.1814575195313 -163.8664855957031 144.9096984863281 -159.2708282470703 138.1073150634766 C -154.7179107666016 131.3681640625 -149.4890289306641 125.0307312011719 -143.7294006347656 119.2711563110352 C -137.9697875976563 113.5116195678711 -131.63232421875 108.2827301025391 -124.8930587768555 103.7298126220703 C -118.0905990600586 99.1341552734375 -110.8187561035156 95.18711853027344 -103.2794799804688 91.99831390380859 C -87.59459686279297 85.36419677734375 -70.93009948730469 82.00042724609375 -53.74890518188477 82.00042724609375 C -41.58567428588867 82.00042724609375 -29.55713653564453 83.71285247802734 -17.99736785888672 87.09015655517578 C -6.800714015960693 90.36142730712891 3.901632308959961 95.17481231689453 13.81228637695313 101.3966598510742 C 31.35780715942383 112.4115676879883 45.92527008056641 127.494010925293 56.29460144042969 145.3073577880859 C 38.79819488525391 148.6526489257813 25.53466987609863 164.0694122314453 25.53466987609863 182.5259704589844 C 25.53466987609863 194.9016723632813 31.46055603027344 206.1971130371094 41.16567993164063 213.2128143310547 C 32.3028678894043 220.314208984375 26.90501594543457 231.1944732666016 26.90501594543457 242.8268127441406 C 26.90501594543457 259.3942260742188 37.63881301879883 273.7473754882813 52.83550643920898 278.7932434082031 C 42.10382843017578 295.2029724121094 27.65778732299805 309.012451171875 10.72709369659424 318.9825744628906 C 1.161439895629883 324.6156616210938 -9.099983215332031 328.9671325683594 -19.77206039428711 331.9161682128906 C -30.78094482421875 334.9582214355469 -42.21240615844727 336.5007019042969 -53.74890518188477 336.5007019042969 Z M 79.32617950439453 215.3275299072266 L 74.29520416259766 212.2037200927734 L 79.18646240234375 209.2478332519531 L 79.32617950439453 215.3275299072266 Z" stroke="none"/>
    <path d="M -53.7489128112793 331.5007019042969 C -42.66246032714844 331.5007019042969 -31.67905044555664 330.01904296875 -21.10382270812988 327.0967712402344 C -10.85391330718994 324.264404296875 -0.9980950951576233 320.0848388671875 8.189949989318848 314.6741333007813 C 22.72552299499512 306.1144104003906 35.35469055175781 294.6101989746094 45.23522567749023 281.0097045898438 C 31.28618049621582 273.8489074707031 21.90499496459961 259.3058471679688 21.90499496459961 242.8268127441406 C 21.90499496459961 231.7306518554688 26.24415397644043 221.2390747070313 33.61289978027344 213.4028778076172 C 25.3934211730957 205.4846649169922 20.53467750549316 194.4481658935547 20.53467750549316 182.5259857177734 C 20.53467750549316 164.1009368896484 32.21142196655273 148.3525085449219 48.55441284179688 142.2926330566406 C 38.90842819213867 127.5793304443359 26.16469192504883 115.0550155639648 11.15385913848877 105.6313095092773 C 1.633813977241516 99.65476226806641 -8.645867347717285 95.03134918212891 -19.39959526062012 91.88953399658203 C -30.50364112854004 88.64535522460938 -42.0604133605957 87.00039672851563 -53.7489128112793 87.00039672851563 C -70.25723266601563 87.00039672851563 -86.26645660400391 90.23130798339844 -101.3317794799805 96.60330963134766 C -108.5735931396484 99.66635131835938 -115.5590515136719 103.4579925537109 -122.0940475463867 107.8729400634766 C -128.5695953369141 112.247673034668 -134.6592712402344 117.2721252441406 -140.1938629150391 122.8066253662109 C -145.7285461425781 128.3413543701172 -150.7530059814453 134.4309844970703 -155.1277313232422 140.9064025878906 C -159.5426330566406 147.4411773681641 -163.3342742919922 154.4265289306641 -166.3973236083984 161.6684417724609 C -172.7693634033203 176.7335357666016 -176.0002746582031 192.7424926757813 -176.0002746582031 209.2505340576172 C -176.0002746582031 225.7586669921875 -172.7693634033203 241.7676239013672 -166.3973236083984 256.832763671875 C -163.3343658447266 264.0744934082031 -159.5426788330078 271.0598449707031 -155.127685546875 277.5948181152344 C -150.7529602050781 284.0702514648438 -145.7285003662109 290.1598510742188 -140.1939544677734 295.6943969726563 C -134.6593170166016 301.2289428710938 -128.5696411132813 306.2534484863281 -122.0940475463867 310.6282653808594 C -115.5589599609375 315.0432739257813 -108.5735473632813 318.8348388671875 -101.3317794799805 321.8977966308594 C -86.26659393310547 328.2698669433594 -70.25736999511719 331.5007019042969 -53.7489128112793 331.5007019042969 M -53.7489128112793 341.5007019042969 C -71.60291290283203 341.5007019042969 -88.9227294921875 338.0040893554688 -105.2272796630859 331.1078491210938 C -113.0637283325195 327.7933959960938 -120.6220016479492 323.6909484863281 -127.6920928955078 318.9144897460938 C -134.6949615478516 314.1834411621094 -141.2802276611328 308.7501831054688 -147.2649536132813 302.7655334472656 C -153.2496337890625 296.7808532714844 -158.6829071044922 290.1956787109375 -163.4139099121094 283.1929016113281 C -168.1904144287109 276.1228637695313 -172.2928619384766 268.5646667480469 -175.6073608398438 260.728271484375 C -182.5036468505859 244.4237670898438 -186.0002746582031 227.1041259765625 -186.0002746582031 209.2505340576172 C -186.0002746582031 191.3969879150391 -182.5036468505859 174.077392578125 -175.6073608398438 157.7729034423828 C -172.2928161621094 149.9364471435547 -168.1903686523438 142.3782196044922 -163.4139099121094 135.3082580566406 C -158.6829528808594 128.3055419921875 -153.2496337890625 121.7203063964844 -147.2649536132813 115.7355804443359 C -141.2802276611328 109.7509460449219 -134.6949615478516 104.3176727294922 -127.6920928955078 99.586669921875 C -120.6220932006836 94.81031036376953 -113.0638656616211 90.70785522460938 -105.2272796630859 87.39326477050781 C -88.92268371582031 80.49707794189453 -71.60282135009766 77.00039672851563 -53.7489128112793 77.00039672851563 C -41.11086654663086 77.00039672851563 -28.610595703125 78.78034973144531 -16.59518623352051 82.29080963134766 C -4.955640316009521 85.69144439697266 6.169359683990479 90.69485473632813 16.4708137512207 97.16194152832031 C 36.91231536865234 109.994987487793 53.46531295776367 128.1439056396484 64.34022521972656 149.6467590332031 C 64.05672454833984 149.6391296386719 63.74972152709961 149.6342620849609 63.4264030456543 149.6342620849609 C 45.28985977172852 149.6342620849609 30.53467750549316 164.3894500732422 30.53467750549316 182.5259857177734 C 30.53467750549316 195.9398956298828 38.55458831787109 207.8920288085938 50.96635818481445 212.9754943847656 C 39.38704299926758 218.3495788574219 31.90499496459961 230.0659484863281 31.90499496459961 242.8268127441406 C 31.90499496459961 259.42138671875 44.30672454833984 273.4559326171875 60.75249481201172 275.472412109375 C 49.32426834106445 295.1916198730469 32.9027214050293 311.7263488769531 13.26426887512207 323.2910461425781 C 3.321086645126343 329.1464538574219 -7.345913410186768 333.6697998046875 -18.44032287597656 336.7355346679688 C -29.88304901123047 339.8974914550781 -41.76259613037109 341.5007019042969 -53.7489128112793 341.5007019042969 Z M 78.45199584960938 212.8950347900391 L 78.45018005371094 212.8941650390625 C 78.05667877197266 212.7144012451172 77.65512847900391 212.5404815673828 77.25676727294922 212.3772583007813 C 77.65008544921875 212.1946258544922 78.06085968017578 211.9943084716797 78.4775390625 211.7794494628906 L 78.47303771972656 212.0529479980469 C 78.46631622314453 212.3330383300781 78.45958709716797 212.6147155761719 78.45208740234375 212.8929443359375 L 78.45199584960938 212.8950347900391 Z" stroke="none" fill="#ececec"/>
  </g>
</svg>
