<?xml version="1.0" encoding="utf-8"?>
<!-- Generator: Adobe Illustrator 24.1.2, SVG Export Plug-In . SVG Version: 6.00 Build 0)  -->
<svg version="1.1" id="Capa_1" xmlns="http://www.w3.org/2000/svg" xmlns:xlink="http://www.w3.org/1999/xlink" x="0px" y="0px"
	 viewBox="0 0 2000 2000" style="enable-background:new 0 0 2000 2000;" xml:space="preserve">
<style type="text/css">
	.st0{fill:#3A9FDD;}
	.st1{fill:#1F6D8C;}
</style>
<g>
	<path class="st0" d="M1868,1041.7c0,191.8-154,347.29-343.98,347.29c-86.09,0-164.8-31.93-225.13-84.7
		c-77.02,76.06-179.24,122.4-291.39,122.4c-106.68,0-204.37-41.94-279.94-111.49c-58.19,45.56-131.25,72.67-210.58,72.67
		C327,1387.87,173,1232.38,173,1040.58s154-347.28,343.98-347.28c40.91,0,80.14,7.21,116.53,20.44
		C709.02,574.45,848.24,481,1007.5,481c162.87,0,304.77,97.72,379.02,242.28c42.12-18.56,88.62-28.85,137.5-28.85
		C1714,694.43,1868,849.91,1868,1041.7z"/>
</g>
<g>
	<path class="st1" d="M1301.61,688.17c30.36,67.75,3,153.64-20.5,157.36c-27.37,4.32-35.28-105.04-135.23-171.99
		c-17.32-11.6-17.98-8.92-93.83-52.28c-64.65-36.96-96.98-55.44-95.88-59.05C962.08,542.73,1239.64,549.87,1301.61,688.17z"/>
</g>
</svg>
