<?xml version="1.0" encoding="utf-8"?>
<!-- Generator: Adobe Illustrator 24.1.2, SVG Export Plug-In . SVG Version: 6.00 Build 0)  -->
<svg version="1.1" id="Capa_1" xmlns="http://www.w3.org/2000/svg" xmlns:xlink="http://www.w3.org/1999/xlink" x="0px" y="0px"
	 viewBox="0 0 2000 2000" style="enable-background:new 0 0 2000 2000;" xml:space="preserve">
<style type="text/css">
	.st0{fill:#DB5D5D;}
	.st1{fill:#9B3B3B;}
	.st2{fill:#FFFFFF;}
	.st3{fill:#E2D7D7;}
	.st4{fill:#664D4D;}
	.st5{fill:#9B5353;}
</style>
<g>
	<path class="st0" d="M1254.98,1796.56H1085.3c-6.45,0-11.68-5.23-11.68-11.68V889.77c0-6.45,5.23-11.68,11.68-11.68h0
		c59.36,12.43,100.86,34.57,128.24,53.12c207.4,140.49,240.77,505.58,120.18,748.52c-24.15,48.65-50.53,84.47-67.06,105.16
		C1266.66,1785.66,1266.59,1789.8,1254.98,1796.56z"/>
	<path class="st0" d="M736.81,1796.56h169.67c6.45,0,11.68-5.23,11.68-11.68V889.77c0-6.45-5.23-11.68-11.68-11.68h0
		c-59.36,12.43-100.86,34.57-128.24,53.12c-207.4,140.49-240.77,505.58-120.18,748.52c24.15,48.65,50.53,84.47,67.06,105.16
		C725.13,1785.66,725.2,1789.8,736.81,1796.56z"/>
	<path class="st1" d="M1132.55,1654.32H867.37V149.45C867.37,93.42,912.79,48,968.81,48h62.29c56.03,0,101.45,45.42,101.45,101.45
		V1654.32z"/>
	<path class="st2" d="M1083.78,615.95c-20.91-5.15-48.2-9.83-80.27-10.16c-35.32-0.36-65.16,4.69-87.38,10.16
		c0-107.02,0-214.04,0-321.06c0-28.06,22.74-50.8,50.8-50.8h66.04c28.06,0,50.8,22.74,50.8,50.8V615.95z"/>
	<path class="st0" d="M1637.51,1796.56h-504.96v-356.62h232.11c150.69,0,272.85,122.16,272.85,272.85V1796.56z"/>
	<path class="st0" d="M362.41,1794.53h504.96v-356.62H635.26c-150.69,0-272.85,122.16-272.85,272.85V1794.53z"/>
	<path class="st2" d="M1010.63,637.29"/>
	<path class="st3" d="M1072.6,339.6c-0.17,28.87-18.26,55.6-25.4,53.85c-4.46-1.09-4.72-16.32-5.08-46.74
		c-0.47-40.41-0.71-60.61,5.08-61.98C1054.62,282.98,1072.78,310.42,1072.6,339.6z"/>
	<path class="st1" d="M1324.58,1843.3H674.33v-74.7c0-134.38,108.94-243.31,243.31-243.31h163.62
		c134.38,0,243.31,108.94,243.31,243.31V1843.3z"/>
	<g>
		<path class="st4" d="M824.7,1939.82c-10.54,4.57-29.03,11-52.83,11.18c-24.89,0.19-44.18-6.54-54.86-11.18c0-35.9,0-71.8,0-107.7
			c5.17-4.22,26.65-20.8,57.91-19.3c26.27,1.26,43.97,14.53,49.78,19.3C824.7,1868.02,824.7,1903.92,824.7,1939.82z"/>
		<path class="st5" d="M824.7,1939.82c-5.78-4.42-28.21-20.48-59.94-18.29c-24.4,1.68-41.23,13.25-47.75,18.29
			c0-35.9,0-71.8,0-107.7c5.17-4.22,26.65-20.8,57.91-19.3c26.27,1.26,43.97,14.53,49.78,19.3
			C824.7,1868.02,824.7,1903.92,824.7,1939.82z"/>
	</g>
	<g>
		<path class="st4" d="M1053.3,1939.82c-10.54,4.57-29.03,11-52.83,11.18c-24.89,0.19-44.18-6.54-54.86-11.18c0-35.9,0-71.8,0-107.7
			c5.17-4.22,26.65-20.8,57.91-19.3c26.27,1.26,43.97,14.53,49.78,19.3C1053.3,1868.02,1053.3,1903.92,1053.3,1939.82z"/>
		<path class="st5" d="M1053.3,1939.82c-5.78-4.42-28.21-20.48-59.94-18.29c-24.4,1.68-41.23,13.25-47.75,18.29
			c0-35.9,0-71.8,0-107.7c5.17-4.22,26.65-20.8,57.91-19.3c26.27,1.26,43.97,14.53,49.78,19.3
			C1053.3,1868.02,1053.3,1903.92,1053.3,1939.82z"/>
	</g>
	<g>
		<path class="st4" d="M1314.42,1939.82c-10.54,4.57-29.03,11-52.83,11.18c-24.89,0.19-44.18-6.54-54.86-11.18
			c0-35.9,0-71.8,0-107.7c5.17-4.22,26.65-20.8,57.91-19.3c26.27,1.26,43.97,14.53,49.78,19.3
			C1314.42,1868.02,1314.42,1903.92,1314.42,1939.82z"/>
		<path class="st5" d="M1314.42,1939.82c-5.78-4.42-28.21-20.48-59.94-18.29c-24.4,1.68-41.23,13.25-47.75,18.29
			c0-35.9,0-71.8,0-107.7c5.17-4.22,26.65-20.8,57.91-19.3c26.27,1.26,43.97,14.53,49.78,19.3
			C1314.42,1868.02,1314.42,1903.92,1314.42,1939.82z"/>
	</g>
	<path class="st5" d="M775.93,1868.7"/>
</g>
</svg>
